<svg width="20" height="20" viewBox="0 0 20 20" fill="none" xmlns="http://www.w3.org/2000/svg">
<path d="M9.99999 2.5C6.31809 2.5 3.33333 5.48477 3.33333 9.16667V9.4395C3.33333 10.8442 3.77672 12.205 4.58864 13.3333H4.58333L4.60249 13.3525C4.76842 13.5813 4.94958 13.8006 5.14533 14.0086C5.4403 14.322 9.99999 17.9167 9.99999 17.9167C10.6654 17.5778 14.3117 14.5855 14.8547 14.0086C15.0525 13.7984 15.2353 13.5768 15.4027 13.3453L15.4167 13.3333H15.4113C16.2232 12.205 16.6667 10.8442 16.6667 9.4395V9.16667C16.6667 5.48477 13.6819 2.5 9.99999 2.5Z" stroke="#5C5C5C" stroke-linejoin="round"/>
<path d="M12.7083 9.16665C12.7083 7.67088 11.4958 6.45831 10 6.45831C8.50423 6.45831 7.29167 7.67088 7.29167 9.16665C7.29167 10.6624 8.50423 11.875 10 11.875C11.4958 11.875 12.7083 10.6624 12.7083 9.16665Z" stroke="#5C5C5C"/>
</svg>
