<svg width="28" height="28" viewBox="0 0 28 28" fill="none" xmlns="http://www.w3.org/2000/svg">
<path d="M14 23.1225C14 23.1225 3.63342 17.3172 3.63342 10.268C3.63342 9.02177 4.06519 7.81408 4.85525 6.85036C5.64532 5.88663 6.74488 5.22641 7.96686 4.98201C9.18884 4.73761 10.4578 4.92414 11.5577 5.50986C12.6577 6.09559 13.5207 7.04431 14 8.19464C14.4793 7.04431 15.3424 6.09559 16.4423 5.50986C17.5423 4.92414 18.8112 4.73761 20.0332 4.98201C21.2551 5.22641 22.3547 5.88663 23.1448 6.85036C23.9348 7.81408 24.3666 9.02177 24.3666 10.268C24.3666 17.3172 14 23.1225 14 23.1225Z" stroke="#F6F4EF" stroke-width="2" stroke-linecap="round" stroke-linejoin="round"/>
</svg>
